<?xml version="1.0" encoding="UTF-8" standalone="no"?>
<svg id="visual" viewBox="0 0 900 600" width="900" height="600" xmlns="http://www.w3.org/2000/svg" xmlns:xlink="http://www.w3.org/1999/xlink" version="1.1"><rect x="0" y="0" width="900" height="600" fill="#002233"></rect><path d="M622 600L616.2 585.7C610.3 571.3 598.7 542.7 621.7 514.2C644.7 485.7 702.3 457.3 731 428.8C759.7 400.3 759.3 371.7 757.3 343C755.3 314.3 751.7 285.7 747 257C742.3 228.3 736.7 199.7 740.5 171.2C744.3 142.7 757.7 114.3 752 85.8C746.3 57.3 721.7 28.7 709.3 14.3L697 0L900 0L900 14.3C900 28.7 900 57.3 900 85.8C900 114.3 900 142.7 900 171.2C900 199.7 900 228.3 900 257C900 285.7 900 314.3 900 343C900 371.7 900 400.3 900 428.8C900 457.3 900 485.7 900 514.2C900 542.7 900 571.3 900 585.7L900 600Z" fill="#49B970" stroke-linecap="round" stroke-linejoin="miter"></path></svg>